<svg width="200" height="150" viewBox="0 0 200 150" fill="none" xmlns="http://www.w3.org/2000/svg">
<rect width="200" height="150" rx="14" fill="#797D85"/>
<rect x="0.5" y="0.5" width="199" height="149" rx="13.5" stroke="black" stroke-opacity="0.4"/>
<mask id="path-3-inside-1_1_2" fill="white">
<path d="M126 42C133.732 42 140 48.268 140 56V88C140 95.732 133.732 102 126 102H74C66.268 102 60 95.732 60 88V56C60 48.268 66.268 42 74 42H126ZM135.01 49.1211C133.911 47.531 131.731 47.1325 130.141 48.2314L108.334 63.3027L90.3789 55.7285C89.0487 55.1677 87.5808 56.158 87.6025 57.6016L87.9014 77.4258L67.8994 91.252C66.3093 92.351 65.9107 94.531 67.0098 96.1211C68.1088 97.7111 70.2888 98.1087 71.8789 97.0098L88.0293 85.8467L88.123 92.0371C88.1471 93.6254 89.9232 94.5531 91.2402 93.665L122.452 72.6162C123.769 71.728 123.575 69.7328 122.111 69.1152L115.979 66.5283L134.121 53.9902C135.711 52.8912 136.109 50.7112 135.01 49.1211Z"/>
</mask>
<path d="M126 42C133.732 42 140 48.268 140 56V88C140 95.732 133.732 102 126 102H74C66.268 102 60 95.732 60 88V56C60 48.268 66.268 42 74 42H126ZM135.01 49.1211C133.911 47.531 131.731 47.1325 130.141 48.2314L108.334 63.3027L90.3789 55.7285C89.0487 55.1677 87.5808 56.158 87.6025 57.6016L87.9014 77.4258L67.8994 91.252C66.3093 92.351 65.9107 94.531 67.0098 96.1211C68.1088 97.7111 70.2888 98.1087 71.8789 97.0098L88.0293 85.8467L88.123 92.0371C88.1471 93.6254 89.9232 94.5531 91.2402 93.665L122.452 72.6162C123.769 71.728 123.575 69.7328 122.111 69.1152L115.979 66.5283L134.121 53.9902C135.711 52.8912 136.109 50.7112 135.01 49.1211Z" fill="url(#paint0_linear_1_2)"/>
<path d="M140 88L141 88V88H140ZM74 102L74 103H74V102ZM60 88L59 88L59 88L60 88ZM74 42L74 41L74 41L74 42ZM135.01 49.1211L135.832 48.5525L135.832 48.5525L135.01 49.1211ZM130.141 48.2314L129.572 47.4088L129.572 47.4088L130.141 48.2314ZM108.334 63.3027L107.945 64.2241L108.451 64.4374L108.903 64.1254L108.334 63.3027ZM90.3789 55.7285L90.7676 54.8071L90.7674 54.8071L90.3789 55.7285ZM87.6025 57.6016L86.6027 57.6166L86.6027 57.6166L87.6025 57.6016ZM87.9014 77.4258L88.47 78.2484L88.9093 77.9447L88.9013 77.4107L87.9014 77.4258ZM67.8994 91.252L68.468 92.0746L68.468 92.0746L67.8994 91.252ZM67.0098 96.1211L66.1871 96.6897L66.1872 96.6897L67.0098 96.1211ZM71.8789 97.0098L72.4474 97.8324L72.4475 97.8324L71.8789 97.0098ZM88.0293 85.8467L89.0292 85.8315L89.0008 83.9595L87.4607 85.0241L88.0293 85.8467ZM88.123 92.0371L89.1229 92.022L89.1229 92.022L88.123 92.0371ZM91.2402 93.665L91.7993 94.4941L91.7994 94.4941L91.2402 93.665ZM122.452 72.6162L123.011 73.4453L123.011 73.4453L122.452 72.6162ZM122.111 69.1152L122.5 68.1939L122.5 68.1939L122.111 69.1152ZM115.979 66.5283L115.411 65.7057L113.912 66.7415L115.591 67.4497L115.979 66.5283ZM134.121 53.9902L134.69 54.8129L134.69 54.8128L134.121 53.9902ZM126 42V43C133.18 43 139 48.8203 139 56H140H141C141 47.7157 134.284 41 126 41V42ZM140 56H139V88H140H141V56H140ZM140 88L139 88C139 95.1797 133.18 101 126 101V102V103C134.284 103 141 96.2843 141 88L140 88ZM126 102V101H74V102V103H126V102ZM74 102L74 101C66.8203 101 61 95.1797 61 88L60 88L59 88C59 96.2842 65.7158 103 74 103L74 102ZM60 88H61V56H60H59V88H60ZM60 56H61C61 48.8203 66.8203 43 74 43L74 42L74 41C65.7157 41 59 47.7157 59 56H60ZM74 42V43H126V42V41H74V42ZM135.01 49.1211L135.832 48.5525C134.419 46.5083 131.617 45.9957 129.572 47.4088L130.141 48.2314L130.709 49.0541C131.845 48.2692 133.402 48.5537 134.187 49.6897L135.01 49.1211ZM130.141 48.2314L129.572 47.4088L107.765 62.4801L108.334 63.3027L108.903 64.1254L130.709 49.0541L130.141 48.2314ZM108.334 63.3027L108.723 62.3814L90.7676 54.8071L90.3789 55.7285L89.9902 56.6499L107.945 64.2241L108.334 63.3027ZM90.3789 55.7285L90.7674 54.8071C88.7718 53.9658 86.5701 55.4515 86.6027 57.6166L87.6025 57.6016L88.6024 57.5865C88.5916 56.8646 89.3255 56.3697 89.9904 56.65L90.3789 55.7285ZM87.6025 57.6016L86.6027 57.6166L86.9015 77.4409L87.9014 77.4258L88.9013 77.4107L88.6024 57.5865L87.6025 57.6016ZM87.9014 77.4258L87.3328 76.6032L67.3308 90.4294L67.8994 91.252L68.468 92.0746L88.47 78.2484L87.9014 77.4258ZM67.8994 91.252L67.3308 90.4293C65.2866 91.8423 64.7739 94.645 66.1871 96.6897L67.0098 96.1211L67.8324 95.5525C67.0475 94.4169 67.332 92.8598 68.468 92.0746L67.8994 91.252ZM67.0098 96.1211L66.1872 96.6897C67.6004 98.7342 70.4033 99.2452 72.4474 97.8324L71.8789 97.0098L71.3104 96.1871C70.1744 96.9722 68.6173 96.688 67.8324 95.5525L67.0098 96.1211ZM71.8789 97.0098L72.4475 97.8324L88.5979 86.6693L88.0293 85.8467L87.4607 85.0241L71.3103 96.1871L71.8789 97.0098ZM88.0293 85.8467L87.0294 85.8618L87.1232 92.0523L88.123 92.0371L89.1229 92.022L89.0292 85.8315L88.0293 85.8467ZM88.123 92.0371L87.1232 92.0522C87.1592 94.4344 89.8235 95.8265 91.7993 94.4941L91.2402 93.665L90.6811 92.8359C90.0229 93.2798 89.1349 92.8165 89.1229 92.022L88.123 92.0371ZM91.2402 93.665L91.7994 94.4941L123.011 73.4453L122.452 72.6162L121.893 71.7871L90.6811 92.836L91.2402 93.665ZM122.452 72.6162L123.011 73.4453C124.987 72.1129 124.695 69.1202 122.5 68.1939L122.111 69.1152L121.723 70.0365C122.454 70.3454 122.551 71.3432 121.893 71.7871L122.452 72.6162ZM122.111 69.1152L122.5 68.1939L116.368 65.607L115.979 66.5283L115.591 67.4497L121.723 70.0366L122.111 69.1152ZM115.979 66.5283L116.548 67.351L134.69 54.8129L134.121 53.9902L133.553 53.1676L115.411 65.7057L115.979 66.5283ZM134.121 53.9902L134.69 54.8128C136.734 53.3996 137.245 50.5967 135.832 48.5525L135.01 49.1211L134.187 49.6896C134.972 50.8256 134.688 52.3827 133.552 53.1676L134.121 53.9902Z" fill="#110E33" fill-opacity="0.11" mask="url(#path-3-inside-1_1_2)"/>
<path d="M30.5 138.5C50 99 119 109 119 109C119 109 148 114 168.5 138.5" stroke="#444A55" stroke-opacity="0.23" stroke-width="5" stroke-linecap="round"/>
<line x1="18.1136" y1="12.8188" x2="53.8188" y2="42.8864" stroke="#444A55" stroke-opacity="0.23" stroke-width="3" stroke-linecap="round"/>
<line x1="18.4483" y1="40.9266" x2="60.9266" y2="13.5517" stroke="#444A55" stroke-opacity="0.23" stroke-width="3" stroke-linecap="round"/>
<line x1="144.114" y1="12.8188" x2="179.819" y2="42.8864" stroke="#444A55" stroke-opacity="0.23" stroke-width="3" stroke-linecap="round"/>
<line x1="144.448" y1="40.9266" x2="186.927" y2="13.5517" stroke="#444A55" stroke-opacity="0.23" stroke-width="3" stroke-linecap="round"/>
<defs>
<linearGradient id="paint0_linear_1_2" x1="109" y1="91.5" x2="68.5" y2="47.5" gradientUnits="userSpaceOnUse">
<stop stop-color="#485061"/>
<stop offset="1" stop-color="#94A5C7"/>
</linearGradient>
</defs>
</svg>
